<svg width="420" height="121" viewBox="0 0 420 121" fill="none" xmlns="http://www.w3.org/2000/svg">
<g filter="url(#filter0_b_186_45)">
<path d="M86.7463 3.91874C87.2377 3.58462 87.8172 3.40393 88.4114 3.39959L413.953 1.02169C415.598 1.00968 416.946 2.32438 416.975 3.96901L418.947 116.421C418.976 118.097 417.627 119.472 415.951 119.474L85.2889 119.905C84.7003 119.906 84.1245 119.734 83.6332 119.41L2.73916 66.053C0.956721 64.8773 0.938344 62.2686 2.70404 61.0679L86.7463 3.91874Z" fill="url(#paint0_linear_186_45)"/>
<path d="M86.4652 3.50527L86.7463 3.91874L86.4652 3.50527L2.42288 60.6544C0.362906 62.0552 0.384344 65.0987 2.46386 66.4703L83.3579 119.827C83.9311 120.205 84.6029 120.406 85.2895 120.405L415.952 119.974C417.907 119.971 419.481 118.367 419.446 116.412L417.475 3.96025C417.441 2.04151 415.869 0.507686 413.95 0.521703L88.4077 2.89961C87.7145 2.90467 87.0384 3.11547 86.4652 3.50527Z" stroke="url(#paint1_radial_186_45)"/>
</g>
<defs>
<filter id="filter0_b_186_45" x="-41.6091" y="-41.9785" width="503.556" height="204.885" filterUnits="userSpaceOnUse" color-interpolation-filters="sRGB">
<feFlood flood-opacity="0" result="BackgroundImageFix"/>
<feGaussianBlur in="BackgroundImageFix" stdDeviation="21"/>
<feComposite in2="SourceAlpha" operator="in" result="effect1_backgroundBlur_186_45"/>
<feBlend mode="normal" in="SourceGraphic" in2="effect1_backgroundBlur_186_45" result="shape"/>
</filter>
<linearGradient id="paint0_linear_186_45" x1="-1" y1="1" x2="205.005" y2="307.326" gradientUnits="userSpaceOnUse">
<stop stop-color="white" stop-opacity="0.47"/>
<stop offset="1" stop-color="white" stop-opacity="0"/>
</linearGradient>
<radialGradient id="paint1_radial_186_45" cx="0" cy="0" r="1" gradientUnits="userSpaceOnUse" gradientTransform="translate(-29.2436 5.16682) rotate(15.7896) scale(510.303 452.912)">
<stop stop-color="white" stop-opacity="0.7"/>
<stop offset="1" stop-color="white" stop-opacity="0.7"/>
</radialGradient>
</defs>
</svg>
